<svg xmlns="http://www.w3.org/2000/svg" xmlns:xlink="http://www.w3.org/1999/xlink" width="400" zoomAndPan="magnify" viewBox="0 0 300 74.999997" height="100" preserveAspectRatio="xMidYMid meet" version="1.0"><defs><g/></defs><path stroke-linecap="butt" transform="matrix(0.298741, 0, 0, 0.298741, 7.500005, -6.265521)" fill="none" stroke-linejoin="miter" d="M 59.716794 203.000201 C 69.81125 203.000201 79.644191 197.116127 85.122918 189.584513 L 86.142824 202.79099 L 121.172677 202.79099 L 122.650234 145.140141 L 120.754254 69.000225 L 82.808515 69.000225 L 81.736306 106.527541 C 75.643021 101.51954 67.45762 98.132928 56.604773 98.132928 C 29.917229 98.132928 13.794866 112.42469 13.794866 150.566565 C 13.794866 189.584513 33.094629 203.000201 59.716794 203.000201 Z M 56.604773 159.994159 C 56.604773 153.077103 60.749776 150.566565 66.019291 150.566565 C 71.236503 150.566565 75.446885 153.953176 75.446885 159.994159 C 75.446885 166.492791 71.236503 169.46098 66.019291 169.46098 C 60.749776 169.46098 56.604773 167.159653 56.604773 159.994159 Z M 56.604773 159.994159 " stroke="#800000" stroke-width="15.729825" stroke-opacity="1" stroke-miterlimit="4"/><g fill="#ff5757" fill-opacity="1"><g transform="translate(10.366049, 54.378846)"><g><path d="M 14.96875 0 C 17.984375 0 20.921875 -1.75 22.5625 -4.015625 L 22.875 -0.0625 L 33.328125 -0.0625 L 33.765625 -17.296875 L 33.203125 -40.03125 L 21.859375 -40.03125 L 21.546875 -28.828125 C 19.734375 -30.328125 17.296875 -31.328125 14.03125 -31.328125 C 6.078125 -31.328125 1.25 -27.0625 1.25 -15.65625 C 1.25 -4.015625 7.015625 0 14.96875 0 Z M 14.03125 -12.84375 C 14.03125 -14.90625 15.28125 -15.65625 16.859375 -15.65625 C 18.421875 -15.65625 19.671875 -14.65625 19.671875 -12.84375 C 19.671875 -10.90625 18.421875 -10.03125 16.859375 -10.03125 C 15.28125 -10.03125 14.03125 -10.71875 14.03125 -12.84375 Z M 14.03125 -12.84375 "/></g></g></g><path stroke-linecap="butt" transform="matrix(0.751864, 0, 0, 0.751864, 41.887272, -6.265534)" fill="none" stroke-linejoin="miter" d="M 30.4704 79.998951 C 41.048275 79.998951 48.716714 74.66845 48.716714 59.165318 C 48.716714 44.010279 42.28998 38.33688 31.70691 38.33688 C 27.37393 38.33688 24.121598 39.677299 21.721314 41.67234 L 21.295289 26.761485 L 6.218181 26.761485 L 5.464845 57.009219 L 6.057123 79.92102 L 19.970457 79.92102 L 20.3757 74.66845 C 22.552581 77.661012 26.459536 79.998951 30.4704 79.998951 Z M 24.220311 62.911215 C 24.220311 60.510932 25.872454 59.165318 27.966208 59.165318 C 30.039181 59.165318 31.70691 60.162838 31.70691 62.911215 C 31.70691 65.758305 30.039181 66.672699 27.966208 66.672699 C 25.872454 66.672699 24.220311 65.493339 24.220311 62.911215 Z M 24.220311 62.911215 " stroke="#800000" stroke-width="6.249998" stroke-opacity="1" stroke-miterlimit="4"/><g fill="#ff5757" fill-opacity="1"><g transform="translate(44.742007, 53.883601)"><g><path d="M 20.046875 0 C 28 0 33.765625 -4.015625 33.765625 -15.65625 C 33.765625 -27.0625 28.953125 -31.328125 20.984375 -31.328125 C 17.734375 -31.328125 15.28125 -30.328125 13.46875 -28.828125 L 13.15625 -40.03125 L 1.8125 -40.03125 L 1.25 -17.296875 L 1.6875 -0.0625 L 12.15625 -0.0625 L 12.46875 -4.015625 C 14.09375 -1.75 17.046875 0 20.046875 0 Z M 15.34375 -12.84375 C 15.34375 -14.65625 16.609375 -15.65625 18.171875 -15.65625 C 19.734375 -15.65625 20.984375 -14.90625 20.984375 -12.84375 C 20.984375 -10.71875 19.734375 -10.03125 18.171875 -10.03125 C 16.609375 -10.03125 15.34375 -10.90625 15.34375 -12.84375 Z M 15.34375 -12.84375 "/></g></g></g><g fill="#000000" fill-opacity="1"><g transform="translate(91.169896, 52.626532)"><g><path d="M 20.96875 0 C 28.703125 0 33.59375 -3.453125 33.59375 -9.21875 C 33.59375 -14.40625 29.515625 -16.796875 22.3125 -16.796875 L 22.3125 -17.5625 C 28.703125 -17.5625 32.359375 -20.40625 32.359375 -25.15625 C 32.359375 -30.8125 27.171875 -33.59375 19.734375 -33.59375 L 1.34375 -33.59375 L 1.34375 0 Z M 12.234375 -21.125 L 18.4375 -21.125 C 20.109375 -21.125 21.265625 -20.640625 21.265625 -19.625 C 21.265625 -18.625 20.203125 -18.140625 18.578125 -18.140625 L 12.234375 -18.140625 Z M 12.234375 -15.84375 L 19.015625 -15.84375 C 20.828125 -15.84375 21.796875 -15.21875 21.796875 -14.203125 C 21.796875 -13.203125 20.828125 -12.578125 19.015625 -12.578125 L 12.234375 -12.578125 Z M 12.234375 -15.84375 "/></g></g></g><g fill="#000000" fill-opacity="1"><g transform="translate(125.393839, 52.626532)"><g><path d="M 14.296875 0.71875 C 22.9375 0.71875 28.125 -4.03125 28.125 -12 C 28.125 -19.96875 22.9375 -24.71875 14.296875 -24.71875 C 5.71875 -24.71875 0.578125 -19.96875 0.578125 -12 C 0.578125 -4.03125 5.71875 0.71875 14.296875 0.71875 Z M 14.296875 -10.125 C 11.234375 -10.125 9.59375 -10.84375 9.59375 -12 C 9.59375 -13.15625 11.234375 -13.921875 14.296875 -13.921875 C 17.46875 -13.921875 19.109375 -13.15625 19.109375 -12 C 19.109375 -10.84375 17.46875 -10.125 14.296875 -10.125 Z M 14.296875 -10.125 "/></g></g></g><g fill="#000000" fill-opacity="1"><g transform="translate(154.097793, 52.626532)"><g><path d="M 11.09375 -11.046875 L 12.53125 -33.59375 L 1.0625 -33.59375 L 1.0625 0 L 15.59375 0 L 15.59375 -11.046875 Z M 11.09375 -11.046875 "/></g></g></g><g fill="#ff5757" fill-opacity="1"><g transform="translate(169.896452, 52.626532)"><g><path d="M 15.9375 0 C 26.921875 0 33.796875 -5.90625 33.796875 -16.84375 C 33.796875 -27.75 26.921875 -33.59375 15.9375 -33.59375 L 1.34375 -33.59375 L 1.34375 0 Z M 17.375 -19.4375 C 20.6875 -19.4375 22.796875 -18.578125 22.796875 -16.796875 C 22.796875 -15.03125 20.6875 -14.203125 17.375 -14.203125 L 12.34375 -14.203125 L 12.34375 -19.4375 Z M 17.375 -19.4375 "/></g></g></g><g fill="#ff5757" fill-opacity="1"><g transform="translate(204.552387, 52.626532)"><g><path d="M 14.96875 0.71875 C 18.90625 0.71875 22.84375 -0.140625 25.109375 -1.15625 L 24.8125 -10.375 C 22.5625 -9.265625 20.203125 -8.6875 16.75 -8.6875 C 13.25 -8.6875 10.21875 -9.359375 10.125 -10.75 L 26.203125 -10.75 C 26.296875 -11.09375 26.453125 -11.71875 26.453125 -12.71875 C 26.453125 -20.015625 21.890625 -24.71875 13.734375 -24.71875 C 5.8125 -24.71875 0.578125 -19.96875 0.578125 -12.09375 C 0.578125 -4.265625 5.65625 0.71875 14.96875 0.71875 Z M 10.078125 -12.578125 C 10.515625 -14.6875 12.046875 -15.5 13.78125 -15.5 C 15.796875 -15.5 17.28125 -14.453125 17.421875 -12.578125 Z M 10.078125 -12.578125 "/></g></g></g><g fill="#ff5757" fill-opacity="1"><g transform="translate(231.576337, 52.626532)"><g><path d="M 11.234375 -8.359375 C 10.9375 -11.46875 12.28125 -13.34375 14.359375 -13.34375 C 16.890625 -13.34375 17.328125 -11.1875 17.046875 -8.78125 L 16.078125 0 L 27.265625 0 L 27.3125 -14.828125 C 27.3125 -21.21875 25.203125 -24.71875 19.484375 -24.71875 C 14.96875 -24.71875 12.28125 -20.25 11.8125 -14.875 L 11.1875 -14.875 L 12.046875 -24 L 1.0625 -24 L 1.0625 0 L 11.90625 0 Z M 11.234375 -8.359375 "/></g></g></g><g fill="#ff5757" fill-opacity="1"><g transform="translate(259.752284, 52.626532)"><g><path d="M 8.640625 0.71875 C 12.28125 0.71875 16.078125 -2.0625 16.21875 -6.4375 L 16.984375 -6.4375 L 16.078125 0 L 29.09375 0 L 29.09375 -10.078125 L 25.96875 -10.078125 L 26.546875 -12.8125 C 28.21875 -20.40625 21.40625 -24.71875 11.65625 -24.71875 C 8.15625 -24.71875 5.046875 -24.234375 2.015625 -23.234375 L 2.015625 -13.78125 C 4.125 -14.828125 7.015625 -15.546875 9.5 -15.546875 C 13.6875 -15.546875 16.84375 -13.578125 16.84375 -11.375 L 16.84375 -10.796875 L 16.171875 -10.796875 C 15.703125 -12.71875 13.25 -14.359375 9.453125 -14.359375 C 4.03125 -14.359375 0.4375 -11.328125 0.4375 -6.765625 C 0.4375 -1.6875 3.40625 0.71875 8.640625 0.71875 Z M 13.78125 -7.484375 C 11.71875 -7.484375 10.46875 -7.96875 10.46875 -8.734375 C 10.46875 -9.546875 11.71875 -9.984375 13.78125 -9.984375 C 15.84375 -9.984375 17.140625 -9.546875 17.140625 -8.734375 C 17.140625 -7.96875 15.84375 -7.484375 13.78125 -7.484375 Z M 13.78125 -7.484375 "/></g></g></g></svg>