<svg xmlns="http://www.w3.org/2000/svg" xmlns:xlink="http://www.w3.org/1999/xlink" width="40" zoomAndPan="magnify" viewBox="0 0 30 30.000001" height="40" preserveAspectRatio="xMidYMid meet" version="1.0"><defs><g/><clipPath id="a400a96fbf"><path d="M 0.484375 0 L 28 0 L 28 29.03125 L 0.484375 29.03125 Z M 0.484375 0 " clip-rule="nonzero"/></clipPath><clipPath id="4418e38090"><path d="M 2 0 L 29.515625 0 L 29.515625 29.03125 L 2 29.03125 Z M 2 0 " clip-rule="nonzero"/></clipPath></defs><g clip-path="url(#a400a96fbf)"><path stroke-linecap="butt" transform="matrix(0.128063, 0, 0, 0.128063, 1.158462, -3.320114)" fill="none" stroke-linejoin="miter" d="M 50.128781 202.992363 C 60.225097 202.992363 70.046891 197.105387 75.537335 189.571277 L 76.543917 202.809348 L 111.560748 202.809348 L 113.055369 145.129184 L 111.164216 68.995028 L 73.219148 68.995028 L 72.151561 106.543564 C 66.051068 101.510657 57.845905 98.124883 47.017529 98.124883 C 20.327871 98.124883 4.192066 112.43054 4.192066 150.558623 C 4.192066 189.571277 23.500127 202.992363 50.128781 202.992363 Z M 47.017529 159.983885 C 47.017529 153.090328 51.165864 150.558623 56.412289 150.558623 C 61.658713 150.558623 65.837551 153.944397 65.837551 159.983885 C 65.837551 166.48091 61.658713 169.470152 56.412289 169.470152 C 51.165864 169.470152 47.017529 167.151965 47.017529 159.983885 Z M 47.017529 159.983885 " stroke="#00bf63" stroke-width="15.729825" stroke-opacity="1" stroke-miterlimit="4"/></g><g fill="#a3e635" fill-opacity="1"><g transform="translate(1.158462, 22.676759)"><g><path d="M 6.421875 0 C 7.703125 0 8.96875 -0.75 9.671875 -1.71875 L 9.796875 -0.03125 L 14.296875 -0.03125 L 14.484375 -7.40625 L 14.234375 -17.15625 L 9.375 -17.15625 L 9.234375 -12.359375 C 8.453125 -13 7.40625 -13.421875 6.015625 -13.421875 C 2.609375 -13.421875 0.53125 -11.609375 0.53125 -6.71875 C 0.53125 -1.71875 3.015625 0 6.421875 0 Z M 6.015625 -5.5 C 6.015625 -6.390625 6.546875 -6.71875 7.21875 -6.71875 C 7.890625 -6.71875 8.4375 -6.28125 8.4375 -5.5 C 8.4375 -4.671875 7.890625 -4.296875 7.21875 -4.296875 C 6.546875 -4.296875 6.015625 -4.59375 6.015625 -5.5 Z M 6.015625 -5.5 "/></g></g></g><g clip-path="url(#4418e38090)"><path stroke-linecap="butt" transform="matrix(0.322307, 0, 0, 0.322307, 13.82655, -3.320119)" fill="none" stroke-linejoin="miter" d="M 26.668111 80.00119 C 37.248563 80.00119 44.920299 74.668545 44.920299 59.167517 C 44.920299 44.005839 38.496886 38.333844 27.916434 38.333844 C 23.577601 38.333844 20.329535 39.679125 17.917726 41.666747 L 17.493538 26.759581 L 2.416697 26.759581 L 1.665279 57.01022 L 2.259142 79.916352 L 16.172497 79.916352 L 16.584565 74.668545 C 18.753981 77.662098 22.668627 80.00119 26.668111 80.00119 Z M 20.426493 62.912488 C 20.426493 60.512798 22.074765 59.167517 24.171464 59.167517 C 26.243923 59.167517 27.916434 60.161328 27.916434 62.912488 C 27.916434 65.760605 26.243923 66.669578 24.171464 66.669578 C 22.074765 66.669578 20.426493 65.493973 20.426493 62.912488 Z M 20.426493 62.912488 " stroke="#00bf63" stroke-width="6.249998" stroke-opacity="1" stroke-miterlimit="4"/></g><g fill="#a3e635" fill-opacity="1"><g transform="translate(13.82655, 22.46446)"><g><path d="M 8.59375 0 C 12 0 14.484375 -1.71875 14.484375 -6.71875 C 14.484375 -11.609375 12.40625 -13.421875 9 -13.421875 C 7.59375 -13.421875 6.546875 -13 5.78125 -12.359375 L 5.640625 -17.15625 L 0.78125 -17.15625 L 0.53125 -7.40625 L 0.71875 -0.03125 L 5.203125 -0.03125 L 5.34375 -1.71875 C 6.046875 -0.75 7.3125 0 8.59375 0 Z M 6.578125 -5.5 C 6.578125 -6.28125 7.125 -6.71875 7.796875 -6.71875 C 8.453125 -6.71875 9 -6.390625 9 -5.5 C 9 -4.59375 8.453125 -4.296875 7.796875 -4.296875 C 7.125 -4.296875 6.578125 -4.671875 6.578125 -5.5 Z M 6.578125 -5.5 "/></g></g></g></svg>