<svg xmlns="http://www.w3.org/2000/svg" xmlns:xlink="http://www.w3.org/1999/xlink" width="250" zoomAndPan="magnify" viewBox="0 0 187.5 187.499992" height="250" preserveAspectRatio="xMidYMid meet" version="1.0"><defs><g/><clipPath id="3306fb2735"><path d="M 0 0 L 172 0 L 172 187 L 0 187 Z M 0 0 " clip-rule="nonzero"/></clipPath><clipPath id="da013b1f3e"><path d="M 16 0 L 187 0 L 187 187 L 16 187 Z M 16 0 " clip-rule="nonzero"/></clipPath></defs><g clip-path="url(#3306fb2735)"><path stroke-linecap="butt" transform="matrix(0.824877, 0, 0, 0.824877, 4.345155, -21.385384)" fill="none" stroke-linejoin="miter" d="M 50.128902 203.002239 C 60.215639 203.002239 70.046655 197.111206 75.525695 189.586406 L 76.548575 202.793874 L 111.572754 202.793874 L 113.059719 145.138468 L 111.160761 69.000183 L 73.219478 69.000183 L 72.144507 106.534208 C 66.054581 101.514517 57.862067 98.133329 47.003435 98.133329 C 20.328042 98.133329 4.198735 112.420505 4.198735 150.565416 C 4.198735 189.586406 23.500866 203.002239 50.128902 203.002239 Z M 47.003435 159.989175 C 47.003435 153.075261 51.151783 150.565416 56.427193 150.565416 C 61.650513 150.565416 65.846216 153.946604 65.846216 159.989175 C 65.846216 166.491094 61.650513 169.460289 56.427193 169.460289 C 51.151783 169.460289 47.003435 167.158808 47.003435 159.989175 Z M 47.003435 159.989175 " stroke="#800000" stroke-width="15.729825" stroke-opacity="1" stroke-miterlimit="4"/></g><g fill="#ff5757" fill-opacity="1"><g transform="translate(4.345155, 146.06456)"><g><path d="M 41.34375 0 C 49.65625 0 57.78125 -4.84375 62.28125 -11.078125 L 63.140625 -0.171875 L 92.03125 -0.171875 L 93.25 -47.75 L 91.6875 -110.546875 L 60.375 -110.546875 L 59.515625 -79.578125 C 54.5 -83.734375 47.75 -86.5 38.75 -86.5 C 16.78125 -86.5 3.453125 -74.734375 3.453125 -43.25 C 3.453125 -11.078125 19.375 0 41.34375 0 Z M 38.75 -35.46875 C 38.75 -41.171875 42.21875 -43.25 46.53125 -43.25 C 50.859375 -43.25 54.328125 -40.484375 54.328125 -35.46875 C 54.328125 -30.109375 50.859375 -27.6875 46.53125 -27.6875 C 42.21875 -27.6875 38.75 -29.578125 38.75 -35.46875 Z M 38.75 -35.46875 "/></g></g></g><g clip-path="url(#da013b1f3e)"><path stroke-linecap="butt" transform="matrix(2.076032, 0, 0, 2.076032, 85.942294, -21.385423)" fill="none" stroke-linejoin="miter" d="M 26.671176 79.999134 C 37.249501 79.999134 44.920762 74.670458 44.920762 59.168 C 44.920762 44.011755 38.491353 38.334984 27.913028 38.334984 C 23.579716 38.334984 20.324557 39.678443 17.923643 41.671052 L 17.496521 26.759414 L 2.421185 26.759414 L 1.668547 57.011693 L 2.257486 79.918225 L 16.17376 79.918225 L 16.580184 74.670458 C 18.757189 77.660312 22.663379 79.999134 26.671176 79.999134 Z M 20.426163 62.910492 C 20.426163 60.509577 22.07444 59.168 24.168655 59.168 C 26.244054 59.168 27.913028 60.165245 27.913028 62.910492 C 27.913028 65.759226 26.244054 66.673681 24.168655 66.673681 C 22.07444 66.673681 20.426163 65.493921 20.426163 62.910492 Z M 20.426163 62.910492 " stroke="#800000" stroke-width="6.249998" stroke-opacity="1" stroke-miterlimit="4"/></g><g fill="#ff5757" fill-opacity="1"><g transform="translate(85.942294, 144.697111)"><g><path d="M 55.359375 0 C 77.328125 0 93.25 -11.078125 93.25 -43.25 C 93.25 -74.734375 79.921875 -86.5 57.953125 -86.5 C 48.953125 -86.5 42.21875 -83.734375 37.1875 -79.578125 L 36.328125 -110.546875 L 5.015625 -110.546875 L 3.453125 -47.75 L 4.671875 -0.171875 L 33.5625 -0.171875 L 34.421875 -11.078125 C 38.921875 -4.84375 47.0625 0 55.359375 0 Z M 42.390625 -35.46875 C 42.390625 -40.484375 45.84375 -43.25 50.171875 -43.25 C 54.5 -43.25 57.953125 -41.171875 57.953125 -35.46875 C 57.953125 -29.578125 54.5 -27.6875 50.171875 -27.6875 C 45.84375 -27.6875 42.390625 -30.109375 42.390625 -35.46875 Z M 42.390625 -35.46875 "/></g></g></g></svg>